# xmcd
#
# Track frame offsets: 
#        150
#        12240
#        27490
#        50317
#        69642
#        92050
#        100080
#        115955
#        126952
#        139462
#        158617
#        171655
#
# Disc length: 2395 seconds
#
# Revision: 1
# Processed by: cddbd v1.5.2PL0 Copyright (c) Steve Scherf et al.
# Submitted via: ExactAudioCopy v0.99pb5
#
DISCID=a709590c
DTITLE=Michel Polnareff - Now
DYEAR=1972
DGENRE=Chanson
TTITLE0=Qui A Tue Grandmaman
TTITLE1=Holidays
TTITLE2=Gloria
TTITLE3=Comme Juliette Et Romeo
TTITLE4=Je Suis Un Homme
TTITLE5=Ca N'arrive Qu'aux Autres
TTITLE6=Tous Les Bateaux...Tous Les Oiseaux
TTITLE7=La Michetonneuse
TTITLE8=Dans La Maison Vide
TTITLE9=Dame Dame
TTITLE10=Allo Georgina
TTITLE11=Ca N'arrive Qu'aux Autres
EXTD=YEAR: 1972
EXTT0=
EXTT1=
EXTT2=
EXTT3=
EXTT4=
EXTT5=
EXTT6=
EXTT7=
EXTT8=
EXTT9=
EXTT10=
EXTT11=
PLAYORDER=
